<svg xmlns="http://www.w3.org/2000/svg" xmlns:xlink="http://www.w3.org/1999/xlink" width="136" height="136" viewBox="0 0 136 136">
  <defs>
    <linearGradient id="linear-gradient" y1="0.519" x2="1" y2="0.5" gradientUnits="objectBoundingBox">
      <stop offset="0" stop-color="#ed6d1d"/>
      <stop offset="1" stop-color="#ffa52e"/>
    </linearGradient>
  </defs>
  <g id="drone" transform="translate(-9697 22390)">
    <g id="Group_787" data-name="Group 787" transform="translate(32293 -31287)">
      <g id="Group_154" data-name="Group 154" transform="translate(-163)">
        <g id="Group_150" data-name="Group 150" transform="translate(-326)">
          <g id="Group_106" data-name="Group 106" transform="translate(-368 2)">
            <circle id="Ellipse_49" data-name="Ellipse 49" cx="68" cy="68" r="68" transform="translate(-21739 8895)" fill="url(#linear-gradient)"/>
          </g>
        </g>
      </g>
    </g>
    <g id="Group_789" data-name="Group 789" transform="translate(-0.25 10.544)">
      <path id="Subtraction_29" data-name="Subtraction 29" d="M4.005-132.64a4.016,4.016,0,0,1-3.628-2.311A3.992,3.992,0,0,1,1.7-139.914H9.4a4.505,4.505,0,0,0,4.5-4.5,4.485,4.485,0,0,0-.157-1.181l52.789-24.616A4.5,4.5,0,0,0,67.9-170H77.7a3.986,3.986,0,0,1-2.226,4.441L5.693-133.016A3.98,3.98,0,0,1,4.005-132.64Z" transform="translate(9726.604 -22179.088)" fill="#fff"/>
      <path id="Subtraction_30" data-name="Subtraction 30" d="M81.389-132.641a3.965,3.965,0,0,1-1.687-.375L9.917-165.558a3.976,3.976,0,0,1-2.069-2.257A3.984,3.984,0,0,1,7.69-170H16.5a4.46,4.46,0,0,0,1.912-.425L71.656-145.6a4.523,4.523,0,0,0-.157,1.182,4.506,4.506,0,0,0,4.5,4.5h7.7a3.994,3.994,0,0,1,1.321,4.962A4.017,4.017,0,0,1,81.389-132.641Z" transform="translate(9719 -22179.088)" fill="#fff"/>
      <rect id="Rectangle_446" data-name="Rectangle 446" width="17" height="7.001" rx="3.5" transform="translate(9721.5 -22328.002)" fill="#fff"/>
      <rect id="Rectangle_453" data-name="Rectangle 453" width="17" height="7.001" rx="3.5" transform="translate(9721 -22358.088)" fill="#fff"/>
      <rect id="Rectangle_448" data-name="Rectangle 448" width="17" height="7.001" rx="3.5" transform="translate(9792.5 -22328.002)" fill="#fff"/>
      <rect id="Rectangle_451" data-name="Rectangle 451" width="17" height="7.001" rx="3.5" transform="translate(9792 -22358.088)" fill="#fff"/>
      <path id="Subtraction_31" data-name="Subtraction 31" d="M11,13A10.928,10.928,0,0,1,3.222,9.778,10.928,10.928,0,0,1,0,2V0H22V2a10.928,10.928,0,0,1-3.222,7.778A10.928,10.928,0,0,1,11,13ZM11,3a4,4,0,1,0,4,4A4,4,0,0,0,11,3Z" transform="translate(9754 -22320)" fill="#fff"/>
      <path id="Rectangle_454" data-name="Rectangle 454" d="M17,0h0A17,17,0,0,1,34,17v3a0,0,0,0,1,0,0H0a0,0,0,0,1,0,0V17A17,17,0,0,1,17,0Z" transform="translate(9748 -22342)" fill="#fff"/>
    </g>
  </g>
</svg>
