<svg xmlns="http://www.w3.org/2000/svg" xmlns:xlink="http://www.w3.org/1999/xlink" width="109.255" height="114.326" viewBox="0 0 109.255 114.326">
  <defs>
    <linearGradient id="linear-gradient" y1="0.519" x2="1" y2="0.5" gradientUnits="objectBoundingBox">
      <stop offset="0" stop-color="#ed6d1d"/>
      <stop offset="1" stop-color="#ffa52e"/>
    </linearGradient>
  </defs>
  <path id="Intersection_2" data-name="Intersection 2" d="M59.5,125.161a2.5,2.5,0,0,1,0-5h17a2.5,2.5,0,0,1,0,5Zm-5-8a2.5,2.5,0,1,1,0-5h27a2.5,2.5,0,1,1,0,5Zm1.191-7.646c-2.444,0-4.424-1.218-4.424-2.72,0,0,2.564-9.607,0-13.344-.922-1.346-1.512-2.211-1.885-2.764a30,30,0,1,1,37.3-.053c-.347.553-.9,1.427-1.789,2.817-2.392,3.759,0,13.344,0,13.344,0,1.5-1.978,2.72-4.422,2.72Zm62.322-11.325-17.49-9.7a2.5,2.5,0,1,1,2.425-4.374l17.494,9.7a2.5,2.5,0,0,1-2.43,4.373ZM16.551,97.221a2.5,2.5,0,0,1,.976-3.4l17.49-9.7A2.5,2.5,0,0,1,37.444,88.5l-17.5,9.7a2.5,2.5,0,0,1-3.4-.972ZM106.127,66.9a2.5,2.5,0,0,1,0-5h14a2.5,2.5,0,1,1,0,5Zm-90.254,0a2.5,2.5,0,0,1,0-5h14a2.5,2.5,0,0,1,0,5Zm19.613-25.02L19.943,29.3a2.5,2.5,0,0,1,3.149-3.888L38.632,38a2.5,2.5,0,1,1-3.146,3.888Zm61.088-.37A2.5,2.5,0,0,1,96.944,38l15.543-12.586a2.5,2.5,0,1,1,3.146,3.883l-15.541,12.59a2.508,2.508,0,0,1-3.517-.37ZM65.5,27.337v-14a2.5,2.5,0,0,1,5,0v14a2.5,2.5,0,0,1-5,0Z" transform="translate(-13.373 -10.836)" fill="url(#linear-gradient)"/>
</svg>
