<svg xmlns="http://www.w3.org/2000/svg" xmlns:xlink="http://www.w3.org/1999/xlink" width="136" height="136" viewBox="0 0 136 136">
  <defs>
    <linearGradient id="linear-gradient" y1="0.519" x2="1" y2="0.5" gradientUnits="objectBoundingBox">
      <stop offset="0" stop-color="#ed6d1d"/>
      <stop offset="1" stop-color="#ffa52e"/>
    </linearGradient>
  </defs>
  <g id="Group_280" data-name="Group 280" transform="translate(21739 -8895)">
    <circle id="Ellipse_49" data-name="Ellipse 49" cx="68" cy="68" r="68" transform="translate(-21739 8895)" fill="url(#linear-gradient)"/>
    <path id="Subtraction_21" data-name="Subtraction 21" d="M-29037.264,30132.961v0c-.068-.092-7.205-9.881-14.367-22.1a167.353,167.353,0,0,1-9.879-19.27c-2.979-7.084-4.49-12.908-4.49-17.312a14,14,0,0,1,.586-4.232,24.2,24.2,0,0,1,9.912-14.3,30.582,30.582,0,0,1,8.574-4.215,33.769,33.769,0,0,1,10.117-1.527,33.759,33.759,0,0,1,10.2,1.553,30.523,30.523,0,0,1,8.621,4.281,24.106,24.106,0,0,1,9.85,14.494,13.136,13.136,0,0,1,.43,3.908v.352a21.085,21.085,0,0,1-1.494,7.8,100.176,100.176,0,0,1-6.918,16.4c-2.586,5.047-5.736,10.578-9.365,16.439-5.877,9.5-11.176,16.9-11.76,17.715l-.014.016Zm.389-70.574c-7.424,0-13.463,5.615-13.463,12.521s6.039,12.52,13.463,12.52,13.463-5.615,13.463-12.52S-29029.449,30062.387-29036.875,30062.387Z" transform="translate(7365.849 -21128.482)" fill="#fff"/>
  </g>
</svg>
