<svg xmlns="http://www.w3.org/2000/svg" xmlns:xlink="http://www.w3.org/1999/xlink" width="136" height="136" viewBox="0 0 136 136">
  <defs>
    <linearGradient id="linear-gradient" y1="0.519" x2="1" y2="0.5" gradientUnits="objectBoundingBox">
      <stop offset="0" stop-color="#ed6d1d"/>
      <stop offset="1" stop-color="#ffa52e"/>
    </linearGradient>
  </defs>
  <g id="Group_269" data-name="Group 269" transform="translate(22107 -9076)">
    <g id="Group_173" data-name="Group 173" transform="translate(652 179)">
      <g id="Group_157" data-name="Group 157" transform="translate(-326)">
        <g id="Group_150" data-name="Group 150" transform="translate(-326)">
          <g id="Group_106" data-name="Group 106" transform="translate(-368 2)">
            <circle id="Ellipse_49" data-name="Ellipse 49" cx="68" cy="68" r="68" transform="translate(-21739 8895)" fill="url(#linear-gradient)"/>
          </g>
        </g>
      </g>
    </g>
    <path id="Path_1229" data-name="Path 1229" d="M41,82A41.011,41.011,0,0,1,25.041,3.222,40.744,40.744,0,0,1,41,0,40.952,40.952,0,0,1,74.69,17.628l-7.963,6.1a31.006,31.006,0,1,0-4.064,39.431l8.184,5.956A40.884,40.884,0,0,1,41,82Z" transform="translate(-22080 9104)" fill="#fff"/>
    <path id="Path_1230" data-name="Path 1230" d="M11.278,2.914a2,2,0,0,1,3.444,0l9.5,16.069A2,2,0,0,1,22.5,22H3.5a2,2,0,0,1-1.722-3.017Z" transform="translate(-21990.029 9124.586) rotate(135)" fill="#fff"/>
  </g>
</svg>
