<svg xmlns="http://www.w3.org/2000/svg" xmlns:xlink="http://www.w3.org/1999/xlink" width="136" height="136" viewBox="0 0 136 136">
  <defs>
    <linearGradient id="linear-gradient" y1="0.519" x2="1" y2="0.5" gradientUnits="objectBoundingBox">
      <stop offset="0" stop-color="#ed6d1d"/>
      <stop offset="1" stop-color="#ffa52e"/>
    </linearGradient>
  </defs>
  <g id="Group_264" data-name="Group 264" transform="translate(22759 -8897)">
    <g id="Group_157" data-name="Group 157" transform="translate(-326)">
      <g id="Group_150" data-name="Group 150" transform="translate(-326)">
        <g id="Group_106" data-name="Group 106" transform="translate(-368 2)">
          <circle id="Ellipse_49" data-name="Ellipse 49" cx="68" cy="68" r="68" transform="translate(-21739 8895)" fill="url(#linear-gradient)"/>
        </g>
      </g>
    </g>
    <path id="Exclusion_2" data-name="Exclusion 2" d="M45-101H5a5.006,5.006,0,0,1-5-5v-68a5.006,5.006,0,0,1,5-5H45a5.006,5.006,0,0,1,5,5v68A5.006,5.006,0,0,1,45-101ZM9-170a5.006,5.006,0,0,0-5,5v53a5.006,5.006,0,0,0,5,5H41a5.005,5.005,0,0,0,5-5v-53a5.006,5.006,0,0,0-5-5Zm24-5a1,1,0,0,0-1,1,1,1,0,0,0,1,1,1,1,0,0,0,1-1A1,1,0,0,0,33-175Zm-12,0a1,1,0,0,0-1,1,1,1,0,0,0,1,1h8a1,1,0,0,0,1-1,1,1,0,0,0-1-1Z" transform="translate(-22716 9105)" fill="#fff"/>
  </g>
</svg>
