<svg xmlns="http://www.w3.org/2000/svg" viewBox="0 0 551.59 225.29">
    <defs>
        <style>
            .cls-1{fill:#1d1d1b;}.cls-2{fill:#e8540e;}
        </style>
    </defs>
    <g id="Lag_2" data-name="Lag 2">
        <g id="Text">
            <path class="cls-1" d="M0,145.74H14.19c6.45,0,11.35.43,14.36,1.55A15.28,15.28,0,0,1,38.7,162.17a14.76,14.76,0,0,1-1.81,7.65c-3.18,6.45-9.37,9-19.6,9l22.27,28.72H31.91L9.72,178.77H6.19v28.72H0Zm6.19,6v21c3.44,0,7,.08,10.24.08,5.33,0,9.46-.51,12.12-2.66a10.41,10.41,0,0,0,3.7-8c0-6-4.13-10.41-13.42-10.41Z"/>
            <path class="cls-1" d="M74.13,197.94c2.93,3.27,6.11,5.08,9.55,5.08,4.47,0,8.42-3.27,8.42-7.57a7.32,7.32,0,0,0-3.78-6.36c-10.49-5.85-15.82-8.35-15.82-16.34,0-7.23,5.59-12.13,12.55-12.13,5,0,8.77,2.41,12.64,6.19l-3.78,3.87c-2.75-2.66-5.5-4.38-9.2-4.38s-6.88,2.66-6.88,6.1a7.52,7.52,0,0,0,3.52,6.11c10.5,6.1,16.34,8.43,16.34,16.68a13.41,13.41,0,0,1-13.75,13.5,17.25,17.25,0,0,1-13.51-6.53Z"/>
            <path class="cls-1" d="M112,185.13c.26,10.49,7.4,18.15,17.2,18.15,9.55,0,14.1-5.42,17.46-10.93l4.9,2.58c-4.64,9.12-11.78,13.68-21.76,13.68C114.64,208.61,106,197,106,184.79c0-12.47,9.2-24.17,23.48-24.17,13,0,23.48,9.37,23.65,24.51ZM146.63,180c-2.41-9.46-9.2-13.67-17.12-13.67-8.17,0-14.27,4.38-16.94,13.67Z"/>
            <path class="cls-2" d="M204.68,209c-10.24,0-15.74-6.62-15.74-14.27,0-8.17,5.93-13.94,14.79-21-4.9-5.85-7.91-9.8-7.91-14.53,0-6.54,6.1-11.1,13.67-11.1,8,0,13.5,4.82,13.5,11.18,0,5.25-4,9.89-10.66,15.57,10.32,11,15.65,16.08,15.82,16.25,2.76-2.32,5.42-4.55,7.49-6.45l4.12,4.48c-2.15,1.89-4.55,4-7.22,6.19,4,4.3,8.17,8.08,11.7,12.21h-8.6c-4.22-4.56-7-7.14-8-8.26C220.41,204.65,214.22,209,204.68,209ZM195,194.33c0,4.39,4.13,8.95,10.32,8.95,5.67,0,11.35-3.45,18.23-8.35-4.39-4.47-9.8-9.71-15.74-16.51C200,184.36,195,188.91,195,194.33Zm22-35.17c0-3-3.26-5.42-7.65-5.42-3.7,0-7.48,2.06-7.48,5.5,0,2.41,2.32,6,6.71,10.93C214.05,165.87,217,162,217,159.16Z"/>
            <path class="cls-1" d="M277.69,145.74h15.22c6.79,0,13.07.35,19.18,2.84,11.09,4.47,17.71,15.14,17.71,28.72,0,17.63-10.66,30.19-30.53,30.19H277.69ZM293,201.47c11.69,0,19.43-1,24.94-7.74a25.3,25.3,0,0,0,5.41-16.34,26.28,26.28,0,0,0-5.16-16.34c-5.84-7.65-14.62-9.29-28-9.29h-6.28v49.71Z"/>
            <path class="cls-1" d="M344.6,185.13c.25,10.49,7.39,18.15,17.2,18.15,9.54,0,14.1-5.42,17.45-10.93l4.9,2.58c-4.64,9.12-11.78,13.68-21.75,13.68-15.14,0-23.82-11.61-23.82-23.82,0-12.47,9.2-24.17,23.47-24.17,13,0,23.48,9.37,23.65,24.51ZM379.25,180c-2.4-9.46-9.2-13.67-17.11-13.67-8.17,0-14.28,4.38-16.94,13.67Z"/>
            <path class="cls-1" d="M396,197.94c2.93,3.27,6.11,5.08,9.55,5.08,4.47,0,8.43-3.27,8.43-7.57a7.33,7.33,0,0,0-3.79-6.36c-10.49-5.85-15.82-8.35-15.82-16.34,0-7.23,5.59-12.13,12.55-12.13,5,0,8.78,2.41,12.65,6.19l-3.79,3.87c-2.75-2.66-5.5-4.38-9.2-4.38s-6.88,2.66-6.88,6.1a7.51,7.51,0,0,0,3.53,6.11c10.49,6.1,16.34,8.43,16.34,16.68a13.42,13.42,0,0,1-13.76,13.5,17.22,17.22,0,0,1-13.5-6.53Z"/>
            <path class="cls-1" d="M499.14,198.2c0,7.48-.44,13.68-4.13,18.75-3.87,5.25-10.67,8.34-19.35,8.34-13.16,0-19.52-5.33-23.57-14.19h6.37c3.44,6,8.77,8.86,16.85,8.86,7.57,0,13.16-2.75,15.91-7.74,1.72-3.18,2-6.45,2-10V198.8a22.87,22.87,0,0,1-18.32,8.69c-12.64,0-23.39-9.63-23.39-23.13a23.77,23.77,0,0,1,23.39-23.74c8.09,0,13.51,3.44,18.32,9.12v-7.92h5.94Zm-41.63-13.5c0,9.12,6.45,17.11,18.49,17.11,10,0,17.46-6.88,17.46-17.54,0-11-8.17-18-17.63-18A18,18,0,0,0,457.51,184.7Z"/>
            <path class="cls-1" d="M517.54,170c4.73-6.19,10.4-9.37,17.11-9.37,10,0,16.94,6.88,16.94,21.24v25.63h-5.84V182.64c0-10.75-3.36-16.69-12.22-16.69a14.66,14.66,0,0,0-12,6.19c-3.44,4.48-4,9-4,16.17v19.18h-5.85V161.82h5.85Z"/>
        </g>
        <g id="Sun_Final" data-name="Sun Final">
            <path class="cls-2" d="M427.85,146.31l3.95-.86c-.65-2.49-1.33-5-2.08-7.43l-4,.85C426.51,141.33,427.21,143.81,427.85,146.31Z"/>
            <path class="cls-2" d="M244.2,4C327.65,4,398.69,58.2,424,133.22l4-.85C402.25,55.53,329.59,0,244.2,0,158.64,0,85.87,55.75,60.27,132.82l3.91,1C89.32,58.5,160.51,4,244.2,4Z"/>
            <path class="cls-2" d="M62.45,139.32l-3.91-1c-.68,2.26-1.31,4.54-1.91,6.83l4,.66Q61.49,142.54,62.45,139.32Z"/>
            <path class="cls-2" d="M433.42,207.49h4q.48-6.81.49-13.73a193.69,193.69,0,0,0-4.79-42.89l-3.94.86a189.65,189.65,0,0,1,4.7,42C433.92,198.38,433.74,203,433.42,207.49Z"/>
            <path class="cls-2" d="M55,207.49q-.49-6.81-.5-13.73a189.13,189.13,0,0,1,4.79-42.38l-4-.66a193.27,193.27,0,0,0-4.84,43q0,6.92.49,13.73Z"/>
        </g>
        <g id="Ray_Large" data-name="Ray Large">
            <path class="cls-2" d="M458.81,137.44a2.13,2.13,0,0,1-1.29-.45,2.09,2.09,0,0,1-.8-1.4,2.12,2.12,0,0,1,1.83-2.36l74.22-9.35a2.11,2.11,0,1,1,.53,4.19l-74.22,9.35Zm74.13-12.2Z"/>
            <path class="cls-2" d="M447.58,101a1.76,1.76,0,0,1-.74-.16,1.83,1.83,0,0,1-1-1l-.07-.17a1.84,1.84,0,0,1,0-1.4,1.78,1.78,0,0,1,1-1L499,77.14a1.79,1.79,0,0,1,1.4,0,1.85,1.85,0,0,1,1,1l.07.17a1.85,1.85,0,0,1-1.05,2.37l-52.11,20.19A1.74,1.74,0,0,1,447.58,101Zm51.89-22.62Z"/>
            <path class="cls-2" d="M430.72,69.11a1.45,1.45,0,0,1-1.17-.59l-.23-.31a1.45,1.45,0,0,1,.3-2l27-20.08a1.46,1.46,0,0,1,2,.3l.24.32a1.42,1.42,0,0,1,.27,1.07,1.46,1.46,0,0,1-.57,1l-27,20.07A1.46,1.46,0,0,1,430.72,69.11Z"/>
        </g>
    </g>
</svg>