<svg xmlns="http://www.w3.org/2000/svg" xmlns:xlink="http://www.w3.org/1999/xlink" width="200" height="200" viewBox="0 0 200 200">
  <defs>
    <style>
      .cls-1 {
        fill: none;
      }

      .cls-2 {
        fill: #fff;
      }

      .cls-3 {
        clip-path: url(#clip-path);
      }

      .cls-4 {
        fill: #161615;
      }

      .cls-5 {
        fill: #e8540c;
      }
    </style>
    <clipPath id="clip-path">
      <rect id="Rectangle_258" data-name="Rectangle 258" class="cls-1" width="164.675" height="67.272"/>
    </clipPath>
  </defs>
  <g id="Group_415" data-name="Group 415" transform="translate(837 22752)">
    <rect id="Rectangle_343" data-name="Rectangle 343" class="cls-2" width="200" height="200" transform="translate(-837 -22752)"/>
    <g id="Group_236" data-name="Group 236" transform="translate(-819.337 -22685.637)">
      <g id="Group_230" data-name="Group 230">
        <g id="Group_229" data-name="Group 229" class="cls-3">
          <path id="Path_1188" data-name="Path 1188" class="cls-4" d="M0,223.092H4.236a13.713,13.713,0,0,1,4.288.462A4.562,4.562,0,0,1,11.554,228a4.42,4.42,0,0,1-.539,2.285c-.95,1.925-2.8,2.67-5.854,2.67l6.65,8.575H9.525L2.9,232.951H1.849v8.575H0Zm1.849,1.8v6.265c1.027,0,2.08.026,3.055.026a5.8,5.8,0,0,0,3.62-.8A3.108,3.108,0,0,0,9.628,228c0-1.8-1.232-3.107-4.005-3.107Z" transform="translate(0 -179.582)"/>
          <path id="Path_1189" data-name="Path 1189" class="cls-4" d="M108.918,257.009a3.875,3.875,0,0,0,2.85,1.515,2.409,2.409,0,0,0,2.516-2.259,2.192,2.192,0,0,0-1.13-1.9c-3.132-1.746-4.724-2.49-4.724-4.878a3.583,3.583,0,0,1,3.749-3.62,5.281,5.281,0,0,1,3.774,1.849l-1.13,1.155a3.831,3.831,0,0,0-2.747-1.309,1.939,1.939,0,0,0-2.054,1.823,2.24,2.24,0,0,0,1.053,1.823c3.132,1.823,4.878,2.516,4.878,4.981a4.006,4.006,0,0,1-4.108,4.031,5.145,5.145,0,0,1-4.031-1.951Z" transform="translate(-86.787 -197.914)"/>
          <path id="Path_1190" data-name="Path 1190" class="cls-4" d="M163.977,253.183c.077,3.132,2.208,5.417,5.135,5.417,2.85,0,4.211-1.618,5.212-3.261l1.463.77a6.816,6.816,0,0,1-6.5,4.082,6.915,6.915,0,0,1-7.112-7.112,7.025,7.025,0,0,1,7.009-7.214c3.877,0,7.009,2.8,7.061,7.317Zm10.347-1.541a5.007,5.007,0,0,0-5.109-4.082c-2.439,0-4.262,1.309-5.058,4.082Z" transform="translate(-130.549 -197.914)"/>
          <path id="Path_1191" data-name="Path 1191" class="cls-5" d="M293.912,244.823c-3.055,0-4.7-1.977-4.7-4.262,0-2.439,1.771-4.159,4.416-6.265-1.464-1.746-2.362-2.927-2.362-4.339,0-1.951,1.823-3.312,4.082-3.312,2.388,0,4.031,1.438,4.031,3.338,0,1.566-1.181,2.952-3.184,4.647,3.081,3.286,4.673,4.8,4.724,4.852.822-.693,1.618-1.361,2.234-1.926l1.232,1.335c-.642.565-1.361,1.207-2.157,1.849,1.207,1.284,2.439,2.413,3.492,3.646h-2.567c-1.258-1.361-2.08-2.131-2.388-2.465-2.156,1.618-4.005,2.9-6.855,2.9m-2.9-4.365a2.913,2.913,0,0,0,3.081,2.67c1.694,0,3.389-1.027,5.443-2.491-1.309-1.335-2.927-2.9-4.7-4.929-2.336,1.771-3.825,3.132-3.825,4.749m6.573-10.5c0-.9-.976-1.617-2.285-1.617-1.1,0-2.234.616-2.234,1.643,0,.719.693,1.8,2,3.261,1.643-1.284,2.516-2.439,2.516-3.286" transform="translate(-232.808 -182.442)"/>
          <path id="Path_1192" data-name="Path 1192" class="cls-4" d="M425.067,223.092h4.544a14.712,14.712,0,0,1,5.725.847c3.312,1.335,5.289,4.519,5.289,8.575,0,5.263-3.184,9.012-9.114,9.012h-6.444Zm4.57,16.637c3.492,0,5.8-.308,7.446-2.311a7.543,7.543,0,0,0,1.617-4.878,7.847,7.847,0,0,0-1.541-4.878c-1.746-2.285-4.364-2.773-8.37-2.773h-1.874v14.84Z" transform="translate(-342.165 -179.582)"/>
          <path id="Path_1193" data-name="Path 1193" class="cls-4" d="M520.065,253.183c.077,3.132,2.208,5.417,5.135,5.417,2.85,0,4.211-1.618,5.212-3.261l1.463.77a6.816,6.816,0,0,1-6.5,4.082,6.915,6.915,0,0,1-7.112-7.112,7.025,7.025,0,0,1,7.009-7.214c3.877,0,7.009,2.8,7.06,7.317Zm10.347-1.541a5.007,5.007,0,0,0-5.109-4.082c-2.439,0-4.262,1.309-5.058,4.082Z" transform="translate(-417.188 -197.914)"/>
          <path id="Path_1194" data-name="Path 1194" class="cls-4" d="M601.648,257.009a3.875,3.875,0,0,0,2.85,1.515,2.409,2.409,0,0,0,2.516-2.259,2.193,2.193,0,0,0-1.129-1.9c-3.133-1.746-4.724-2.49-4.724-4.878a3.583,3.583,0,0,1,3.748-3.62,5.28,5.28,0,0,1,3.774,1.849l-1.129,1.155a3.831,3.831,0,0,0-2.747-1.309,1.938,1.938,0,0,0-2.054,1.823,2.24,2.24,0,0,0,1.053,1.823c3.132,1.823,4.878,2.516,4.878,4.981a4.006,4.006,0,0,1-4.108,4.031,5.145,5.145,0,0,1-4.031-1.951Z" transform="translate(-483.418 -197.914)"/>
          <path id="Path_1195" data-name="Path 1195" class="cls-4" d="M705.336,257.086c0,2.234-.129,4.082-1.232,5.6a6.907,6.907,0,0,1-5.777,2.49c-3.928,0-5.828-1.592-7.035-4.236h1.9a5.227,5.227,0,0,0,5.032,2.644c2.259,0,3.928-.821,4.75-2.311a5.967,5.967,0,0,0,.59-2.978v-1.027a7.01,7.01,0,0,1-12.452-4.313,7.1,7.1,0,0,1,6.983-7.086,6.736,6.736,0,0,1,5.469,2.722v-2.362h1.772Zm-12.427-4.031c0,2.721,1.926,5.109,5.52,5.109a4.993,4.993,0,0,0,5.212-5.238,5.167,5.167,0,0,0-5.263-5.366,5.383,5.383,0,0,0-5.469,5.494" transform="translate(-556.322 -197.914)"/>
          <path id="Path_1196" data-name="Path 1196" class="cls-4" d="M785.007,248.665a6.283,6.283,0,0,1,5.109-2.8c2.978,0,5.058,2.054,5.058,6.341v7.651h-1.746v-7.42c0-3.209-1-4.981-3.646-4.981a4.373,4.373,0,0,0-3.594,1.848c-1.027,1.335-1.181,2.67-1.181,4.827v5.725h-1.746V246.225h1.746Z" transform="translate(-630.499 -197.914)"/>
        </g>
      </g>
      <g id="Group_232" data-name="Group 232">
        <g id="Group_231" data-name="Group 231" class="cls-3">
          <path id="Path_1197" data-name="Path 1197" class="cls-5" d="M652.358,213.5l1.178-.255q-.289-1.118-.62-2.22l-1.181.256q.334,1.1.623,2.219" transform="translate(-524.625 -169.87)"/>
          <path id="Path_1198" data-name="Path 1198" class="cls-5" d="M147.163,1.2a56.74,56.74,0,0,1,53.684,38.568l1.184-.256a57.848,57.848,0,0,0-109.779.137l1.168.305A56.739,56.739,0,0,1,147.163,1.2" transform="translate(-74.259)"/>
          <path id="Path_1199" data-name="Path 1199" class="cls-5" d="M88.428,212.011l-1.166-.3q-.3,1.011-.569,2.038l1.194.2q.254-.971.541-1.929" transform="translate(-69.785 -170.416)"/>
          <path id="Path_1200" data-name="Path 1200" class="cls-5" d="M658.268,247.851h1.207c.1-1.355.147-2.721.147-4.1a57.745,57.745,0,0,0-1.432-12.8l-1.177.255a56.545,56.545,0,0,1,1.4,12.547c0,1.379-.052,2.745-.149,4.1" transform="translate(-528.874 -185.906)"/>
          <path id="Path_1201" data-name="Path 1201" class="cls-5" d="M78.566,247.665c-.1-1.354-.15-2.721-.15-4.1a56.544,56.544,0,0,1,1.43-12.652l-1.191-.2a57.733,57.733,0,0,0-1.444,12.847c0,1.379.052,2.745.147,4.1Z" transform="translate(-62.153 -185.72)"/>
        </g>
      </g>
      <g id="Group_234" data-name="Group 234">
        <g id="Group_233" data-name="Group 233" class="cls-3">
          <path id="Path_1202" data-name="Path 1202" class="cls-5" d="M699.723,193.65a.63.63,0,0,1-.624-.552.631.631,0,0,1,.547-.7L721.8,189.6a.63.63,0,0,1,.158,1.251L699.8,193.645a.657.657,0,0,1-.08.005m22.131-3.643h0Z" transform="translate(-562.747 -152.619)"/>
          <path id="Path_1203" data-name="Path 1203" class="cls-5" d="M682.793,125.061a.548.548,0,0,1-.51-.35l-.019-.05a.547.547,0,0,1,.313-.707l15.557-6.029a.547.547,0,0,1,.707.312l.019.05a.546.546,0,0,1-.313.707l-15.557,6.028a.543.543,0,0,1-.2.037m15.49-6.754h0Z" transform="translate(-549.17 -94.896)"/>
          <path id="Path_1204" data-name="Path 1204" class="cls-5" d="M657.237,77.09a.432.432,0,0,1-.348-.174l-.07-.094a.433.433,0,0,1,.089-.606l8.053-5.993a.434.434,0,0,1,.606.089l.07.094a.433.433,0,0,1-.089.606L657.495,77a.432.432,0,0,1-.258.085" transform="translate(-528.648 -56.458)"/>
        </g>
      </g>
    </g>
  </g>
</svg>
