<?xml version="1.0" encoding="UTF-8"?><svg id="a" xmlns="http://www.w3.org/2000/svg" viewBox="0 0 500.96 207.43"><defs><style>.b{stroke:#858585;stroke-width:9px;}.b,.c{stroke-miterlimit:10;}.b,.c,.d{fill:none;}.c{stroke:#ed6d18;stroke-linecap:round;stroke-width:4px;}.e{fill:#ed6d18;}.f{fill:#1d1d1b;}</style></defs><path class="f" d="M0,135.15H12.89c5.86,0,10.31,.39,13.04,1.41,5.78,2.19,9.22,7.19,9.22,13.51,0,2.81-.39,4.45-1.64,6.95-2.89,5.86-8.51,8.12-17.81,8.12l20.23,26.09h-6.95l-20.15-26.09h-3.2v26.09H0v-56.08Zm5.62,5.47v19.06c3.12,0,6.33,.08,9.29,.08,4.84,0,8.59-.47,11.01-2.42,2.03-1.64,3.36-4.37,3.36-7.26,0-5.47-3.75-9.45-12.18-9.45H5.62Z"/><path class="f" d="M67.33,182.56c2.66,2.97,5.55,4.61,8.67,4.61,4.06,0,7.65-2.97,7.65-6.87,0-2.42-1.41-4.69-3.44-5.78-9.53-5.31-14.37-7.58-14.37-14.84,0-6.56,5.08-11.01,11.4-11.01,4.53,0,7.97,2.19,11.48,5.62l-3.44,3.51c-2.5-2.42-5-3.98-8.36-3.98s-6.25,2.42-6.25,5.55c0,2.11,1.33,4.45,3.2,5.55,9.53,5.55,14.84,7.65,14.84,15.15,0,6.48-5,12.26-12.5,12.26-4.61,0-9.29-2.11-12.26-5.94l3.36-3.83Z"/><path class="f" d="M101.69,170.92c.23,9.53,6.72,16.48,15.62,16.48s12.81-4.92,15.86-9.92l4.45,2.34c-4.22,8.28-10.7,12.42-19.76,12.42-13.75,0-21.64-10.54-21.64-21.64s8.36-21.95,21.32-21.95c11.79,0,21.32,8.51,21.48,22.26h-37.33Zm31.48-4.69c-2.19-8.59-8.36-12.42-15.54-12.42s-12.97,3.98-15.39,12.42h30.93Z"/><path class="e" d="M185.89,192.56c-9.29,0-14.29-6.01-14.29-12.97,0-7.42,5.39-12.65,13.43-19.06-4.45-5.31-7.19-8.9-7.19-13.2,0-5.94,5.55-10.08,12.42-10.08,7.26,0,12.26,4.37,12.26,10.15,0,4.76-3.59,8.98-9.69,14.14,9.37,10,14.22,14.61,14.37,14.76,2.5-2.11,4.92-4.14,6.8-5.86l3.75,4.06c-1.95,1.72-4.14,3.67-6.56,5.62,3.67,3.91,7.42,7.34,10.62,11.09h-7.81c-3.83-4.14-6.33-6.48-7.26-7.5-6.56,4.92-12.18,8.83-20.85,8.83Zm-8.83-13.28c0,3.98,3.75,8.12,9.37,8.12,5.15,0,10.31-3.12,16.56-7.58-3.98-4.06-8.9-8.83-14.29-15-7.11,5.39-11.64,9.53-11.64,14.45Zm19.99-31.94c0-2.73-2.97-4.92-6.95-4.92-3.36,0-6.8,1.87-6.8,5,0,2.19,2.11,5.47,6.09,9.92,5-3.91,7.65-7.42,7.65-10Z"/><path class="f" d="M252.2,135.15h13.82c6.17,0,11.87,.31,17.42,2.58,10.08,4.06,16.09,13.75,16.09,26.09,0,16.01-9.69,27.41-27.73,27.41h-19.6v-56.08Zm13.9,50.61c10.62,0,17.65-.94,22.65-7.03,3.2-3.91,4.92-8.98,4.92-14.84s-1.56-10.78-4.69-14.84c-5.31-6.95-13.28-8.44-25.46-8.44h-5.7v45.15h8.28Z"/><path class="f" d="M312.97,170.92c.23,9.53,6.72,16.48,15.62,16.48s12.81-4.92,15.86-9.92l4.45,2.34c-4.22,8.28-10.7,12.42-19.76,12.42-13.75,0-21.63-10.54-21.63-21.64s8.36-21.95,21.32-21.95c11.79,0,21.32,8.51,21.48,22.26h-37.33Zm31.48-4.69c-2.19-8.59-8.36-12.42-15.54-12.42s-12.97,3.98-15.39,12.42h30.93Z"/><path class="f" d="M359.67,182.56c2.66,2.97,5.55,4.61,8.67,4.61,4.06,0,7.65-2.97,7.65-6.87,0-2.42-1.41-4.69-3.44-5.78-9.53-5.31-14.37-7.58-14.37-14.84,0-6.56,5.08-11.01,11.4-11.01,4.53,0,7.97,2.19,11.48,5.62l-3.44,3.51c-2.5-2.42-5-3.98-8.36-3.98s-6.25,2.42-6.25,5.55c0,2.11,1.33,4.45,3.2,5.55,9.53,5.55,14.84,7.65,14.84,15.15,0,6.48-5,12.26-12.5,12.26-4.61,0-9.29-2.11-12.26-5.94l3.36-3.83Z"/><path class="f" d="M453.32,182.79c0,6.8-.39,12.42-3.75,17.03-3.51,4.76-9.69,7.58-17.57,7.58-11.95,0-17.73-4.84-21.4-12.89h5.78c3.12,5.47,7.97,8.04,15.31,8.04,6.87,0,11.95-2.5,14.45-7.03,1.56-2.89,1.8-5.86,1.8-9.06v-3.12c-4.14,5.23-10.15,7.89-16.64,7.89-11.48,0-21.24-8.75-21.24-21.01s10.23-21.56,21.24-21.56c7.34,0,12.26,3.12,16.64,8.28v-7.19h5.39v33.04Zm-37.8-12.26c0,8.28,5.86,15.54,16.79,15.54,9.06,0,15.86-6.25,15.86-15.93s-7.42-16.32-16.01-16.32c-9.29,0-16.64,7.11-16.64,16.71Z"/><path class="f" d="M470.03,157.17c4.3-5.62,9.45-8.51,15.54-8.51,9.06,0,15.39,6.25,15.39,19.29v23.28h-5.31v-22.57c0-9.76-3.05-15.15-11.09-15.15-4.45,0-8.12,1.95-10.93,5.62-3.12,4.06-3.59,8.12-3.59,14.68v17.42h-5.31v-41.47h5.31v7.42Z"/><path class="d" d="M67.33,182.6c2.66,2.97,5.55,4.61,8.67,4.61,4.06,0,7.65-2.97,7.65-6.87,0-2.42-1.41-4.69-3.44-5.78-9.53-5.31-14.37-7.58-14.37-14.84,0-6.56,5.08-11.01,11.4-11.01,4.53,0,7.97,2.19,11.48,5.62l-3.44,3.51c-2.5-2.42-5-3.98-8.36-3.98s-6.25,2.42-6.25,5.55c0,2.11,1.33,4.45,3.2,5.55,9.53,5.55,14.84,7.65,14.84,15.15,0,6.48-5,12.26-12.5,12.26-4.61,0-9.29-2.11-12.26-5.94l3.36-3.83Z"/><path class="d" d="M453.32,182.83c0,6.8-.39,12.42-3.75,17.03-3.51,4.76-9.69,7.58-17.57,7.58-11.95,0-17.73-4.84-21.4-12.89h5.78c3.12,5.47,7.97,8.04,15.31,8.04,6.87,0,11.95-2.5,14.45-7.03,1.56-2.89,1.8-5.86,1.8-9.06v-3.12c-4.14,5.23-10.15,7.89-16.64,7.89-11.48,0-21.24-8.75-21.24-21.01s10.23-21.56,21.24-21.56c7.34,0,12.26,3.12,16.64,8.28v-7.19h5.39v33.04Zm-37.8-12.26c0,8.28,5.86,15.54,16.79,15.54,9.06,0,15.86-6.25,15.86-15.93s-7.42-16.32-16.01-16.32c-9.29,0-16.64,7.11-16.64,16.71Z"/><path class="d" d="M470.03,157.21c4.3-5.62,9.45-8.51,15.54-8.51,9.06,0,15.39,6.25,15.39,19.29v23.28h-5.31v-22.57c0-9.76-3.05-15.15-11.09-15.15-4.45,0-8.12,1.95-10.93,5.62-3.12,4.06-3.59,8.12-3.59,14.68v17.42h-5.31v-41.47h5.31v7.42Z"/><path class="e" d="M388.58,135.52l3.58-.78c-.59-2.27-1.21-4.52-1.89-6.75l-3.59,.78c.68,2.23,1.31,4.48,1.9,6.75Z"/><path class="e" d="M221.78,6.45c75.8,0,140.32,49.19,163.31,117.33l3.6-.78C365.32,53.21,299.33,2.78,221.78,2.78S77.98,53.41,54.73,123.42l3.55,.93C81.12,55.92,145.78,6.45,221.78,6.45Z"/><path class="e" d="M56.71,129.32l-3.55-.93c-.61,2.05-1.19,4.12-1.73,6.2l3.63,.59c.52-1.97,1.06-3.93,1.65-5.87Z"/><g><path class="e" d="M393.64,191.23h3.67c.29-4.12,.45-8.28,.45-12.47,0-13.38-1.51-26.41-4.36-38.95l-3.58,.77c2.79,12.28,4.27,25.06,4.27,38.17,0,4.19-.16,8.35-.45,12.47Z"/><path class="e" d="M49.93,191.23c-.3-4.12-.45-8.28-.45-12.47,0-13.23,1.51-26.11,4.35-38.49l-3.62-.59c-2.87,12.57-4.39,25.65-4.39,39.08,0,4.19,.16,8.35,.45,12.47h3.67Z"/></g><path class="d" d="M393.64,191.27h3.67c.29-4.12,.45-8.28,.45-12.47,0-13.38-1.51-26.41-4.36-38.95l-3.58,.77c2.79,12.28,4.27,25.06,4.27,38.17,0,4.19-.16,8.35-.45,12.47Z"/><path class="b" d="M47.55,191.23C42.61,92.94,113.41,4.5,221.63,4.5s178.22,90.05,174.15,186.77"/><line class="c" x1="391.2" y1="64.01" x2="415.47" y2="45.97"/><line class="c" x1="406.51" y1="92.7" x2="453.92" y2="74.39"/><line class="c" x1="416.84" y1="125.74" x2="484.25" y2="117.26"/></svg>