<svg id="Group_374" data-name="Group 374" xmlns="http://www.w3.org/2000/svg" width="148.04" height="132.753" viewBox="0 0 148.04 132.753">
  <path id="Subtraction_12" data-name="Subtraction 12" d="M6.335,58.733h0L0,58.731A58.352,58.352,0,0,1,17.32,17.2a59.353,59.353,0,0,1,83.631,0,58.352,58.352,0,0,1,17.32,41.527l-6.335,0A51.908,51.908,0,0,0,96.453,21.668,52.625,52.625,0,0,0,59.135,6.292c-29.114,0-52.8,23.524-52.8,52.439Z" transform="translate(15.287)" fill="#f5f5f5"/>
  <path id="Rectangle_196" data-name="Rectangle 196" d="M0,0H15.919a5,5,0,0,1,5,5V28.792a5,5,0,0,1-5,5H0a0,0,0,0,1,0,0V0A0,0,0,0,1,0,0Z" transform="translate(127.121 46.665)" fill="#f5f5f5"/>
  <path id="Rectangle_197" data-name="Rectangle 197" d="M5,0H20.919a0,0,0,0,1,0,0V33.792a0,0,0,0,1,0,0H5a5,5,0,0,1-5-5V5A5,5,0,0,1,5,0Z" transform="translate(0 46.665)" fill="#f5f5f5"/>
  <path id="Rectangle_198" data-name="Rectangle 198" d="M5,0h7.873a0,0,0,0,1,0,0V20.919a0,0,0,0,1,0,0H5a5,5,0,0,1-5-5V5A5,5,0,0,1,5,0Z" transform="translate(61.147 132.753) rotate(-90)" fill="#f5f5f5"/>
  <path id="Subtraction_14" data-name="Subtraction 14" d="M6.334,59.121h0v0l-6.33,0A59.072,59.072,0,0,1,59.121,0c.479,0,.965.006,1.446.017l-.155,6.332c-.405-.01-.839-.016-1.291-.016A52.847,52.847,0,0,0,6.334,59.121Z" transform="translate(133.141 126.555) rotate(180)" fill="#f5f5f5"/>
  <path id="Line_58" data-name="Line 58" d="M19.668,22.838a5.258,5.258,0,0,1-3.474-1.306L-.7,6.751A5.279,5.279,0,1,1,6.255-1.194l16.892,14.78a5.279,5.279,0,0,1-3.478,9.251Z" transform="translate(49.071 67.821)" fill="#dfdfdf"/>
  <path id="Line_59" data-name="Line 59" d="M2.775,46.064a5.279,5.279,0,0,1-4.163-8.52L28.172-.462A5.279,5.279,0,0,1,36.506,6.02L6.945,44.026A5.27,5.27,0,0,1,2.775,46.064Z" transform="translate(65.962 44.595)" fill="#dfdfdf"/>
</svg>
