<svg xmlns="http://www.w3.org/2000/svg" width="203.647" height="203.647" viewBox="0 0 203.647 203.647">
  <g id="Group_377" data-name="Group 377" transform="translate(0)">
    <g id="Group_369" data-name="Group 369" transform="translate(0 101.823) rotate(-45)">
      <line id="Line_125" data-name="Line 125" y2="42.639" transform="translate(70.379 144.87)" fill="none" stroke="#dfdfdf" stroke-linecap="round" stroke-width="15"/>
      <g id="Ellipse_79" data-name="Ellipse 79" fill="none" stroke="#fff" stroke-width="8">
        <circle cx="72" cy="72" r="72" stroke="none"/>
        <circle cx="72" cy="72" r="68" fill="none"/>
      </g>
    </g>
    <path id="Path_1218" data-name="Path 1218" d="M17.754-7.324a3.434,3.434,0,0,0-1.318-2.891,15.862,15.862,0,0,0-4.756-2.051,22.966,22.966,0,0,1-5.469-2.3q-3.887-2.441-3.887-6.367a6.929,6.929,0,0,1,2.8-5.664A11.344,11.344,0,0,1,12.4-28.828,12.289,12.289,0,0,1,17.7-27.734a8.688,8.688,0,0,1,3.652,3.115,7.99,7.99,0,0,1,1.328,4.482H17.754a4.456,4.456,0,0,0-1.4-3.486,5.764,5.764,0,0,0-3.994-1.26A6.02,6.02,0,0,0,8.6-23.848a3.447,3.447,0,0,0-1.338,2.891A3.118,3.118,0,0,0,8.711-18.35a16.65,16.65,0,0,0,4.766,2.031,21.921,21.921,0,0,1,5.332,2.246,8.481,8.481,0,0,1,2.949,2.891A7.528,7.528,0,0,1,22.7-7.363a6.768,6.768,0,0,1-2.725,5.654,11.818,11.818,0,0,1-7.393,2.1A13.892,13.892,0,0,1,6.9-.752,9.531,9.531,0,0,1,2.881-3.906,7.861,7.861,0,0,1,1.445-8.594H6.387a4.6,4.6,0,0,0,1.6,3.75,7.014,7.014,0,0,0,4.59,1.328,6.094,6.094,0,0,0,3.877-1.045A3.371,3.371,0,0,0,17.754-7.324Zm25.9-5.371H31.973v8.75H45.625V0H27.031V-28.437H45.488v3.984H31.973V-16.6h11.68Zm28.691-.781A17.447,17.447,0,0,1,70.9-6.143,10.928,10.928,0,0,1,66.768-1.3,11.362,11.362,0,0,1,60.586.391,11.389,11.389,0,0,1,54.424-1.3a11.1,11.1,0,0,1-4.18-4.814A16.9,16.9,0,0,1,48.75-13.32v-1.6a17.3,17.3,0,0,1,1.475-7.344,11.083,11.083,0,0,1,4.16-4.873,11.326,11.326,0,0,1,6.162-1.689,11.426,11.426,0,0,1,6.162,1.67,10.942,10.942,0,0,1,4.15,4.8,17.261,17.261,0,0,1,1.484,7.295ZM67.4-14.961q0-4.727-1.787-7.246a5.847,5.847,0,0,0-5.068-2.52,5.829,5.829,0,0,0-5.01,2.51,12.191,12.191,0,0,0-1.846,7.1v1.641q0,4.688,1.826,7.246a5.88,5.88,0,0,0,5.068,2.559,5.812,5.812,0,0,0,5.049-2.5q1.768-2.5,1.768-7.3Z" transform="translate(65 118)" fill="#dfdfdf"/>
  </g>
</svg>
